<?xml version="1.0" standalone="no"?>
<!DOCTYPE svg PUBLIC "-//W3C//DTD SVG 20010904//EN"
 "http://www.w3.org/TR/2001/REC-SVG-20010904/DTD/svg10.dtd">
<svg version="1.0" xmlns="http://www.w3.org/2000/svg"
 width="900.000000pt" height="900.000000pt" viewBox="0 0 900.000000 900.000000"
 preserveAspectRatio="xMidYMid meet">
<metadata>
Created by potrace 1.14, written by Peter Selinger 2001-2017
</metadata>
<g transform="translate(0.000000,900.000000) scale(0.100000,-0.100000)"
fill="#000000" stroke="none">
<path d="M965 5911 c-32 -7 -31 -3 -84 -206 -72 -270 -129 -483 -301 -1125
-67 -250 -133 -495 -146 -545 -69 -258 -87 -335 -81 -341 4 -4 721 -9 1594
-11 1468 -4 1794 -8 1720 -23 l-27 -5 25 -29 c15 -17 25 -42 25 -60 1 -32 3
-27 65 134 8 19 16 51 19 70 4 19 10 40 14 47 7 11 1255 16 3855 13 l447 0 0
-24 c0 -12 -4 -36 -9 -52 -5 -16 -12 -56 -15 -89 -3 -39 -2 -51 4 -33 4 14 15
39 24 55 13 24 57 174 73 253 8 40 88 345 134 515 11 39 32 120 48 180 17 61
37 135 45 165 33 121 91 340 128 480 33 129 58 224 68 255 17 62 53 193 74
278 18 67 20 90 11 97 -13 11 -7655 12 -7710 1z m1061 -195 c11 -29 -14 -55
-57 -58 l-41 -3 -34 -98 c-41 -119 -39 -117 -72 -117 -50 0 -52 9 -22 100 39
114 39 120 -6 120 -34 0 -36 1 -29 27 3 15 12 31 18 35 7 4 63 8 125 8 88 0
114 -3 118 -14z m258 -11 c-1 -11 -5 -33 -9 -48 -7 -28 -7 -28 35 -25 40 3 43
5 59 48 16 43 18 45 56 45 50 0 50 -3 -7 -162 l-43 -118 -35 0 c-31 0 -35 3
-34 25 1 14 5 40 9 58 l8 32 -41 0 c-36 0 -41 -3 -51 -32 -25 -68 -36 -83 -65
-86 -50 -6 -51 8 -11 130 48 145 57 160 98 156 25 -2 32 -8 31 -23z m602 11
c3 -8 1 -24 -5 -35 -9 -17 -23 -21 -83 -23 -46 -2 -73 -7 -76 -15 -3 -10 13
-13 56 -13 32 0 61 -3 65 -6 3 -3 1 -19 -5 -35 -10 -28 -12 -29 -73 -29 -43 0
-66 -5 -75 -15 -20 -24 -1 -35 61 -35 65 0 79 -12 59 -49 -10 -19 -20 -21
-120 -21 -60 0 -111 4 -115 9 -7 12 76 263 90 273 6 4 56 8 113 8 80 0 104 -3
108 -14z m3310 -572 c80 -18 140 -55 168 -103 15 -27 20 -53 20 -117 1 -45 -1
-85 -4 -87 -9 -9 -296 -31 -313 -24 -12 4 -17 18 -17 46 0 49 -23 76 -74 90
-52 14 -117 -3 -156 -39 -55 -51 -33 -99 55 -120 207 -52 286 -82 344 -135 54
-49 64 -80 59 -173 -4 -64 -10 -89 -39 -142 -43 -80 -147 -189 -219 -228 -106
-58 -172 -74 -332 -79 -160 -6 -263 9 -326 47 -45 28 -88 99 -96 161 -8 63 2
159 18 164 27 7 308 26 314 21 3 -4 5 -28 3 -55 -4 -95 76 -147 186 -120 77
18 133 72 133 127 0 48 -26 75 -95 95 -162 50 -195 61 -240 84 -104 51 -139
104 -133 202 10 176 169 333 386 382 99 22 268 24 358 3z m-3026 -9 c0 -13
-74 -222 -82 -232 -8 -10 -71 -13 -253 -13 l-243 0 -26 -78 c-14 -42 -26 -83
-26 -90 0 -9 48 -12 205 -12 113 0 205 -3 205 -7 0 -7 -45 -142 -62 -185 l-10
-28 -211 -2 -212 -3 -72 -214 c-40 -118 -79 -218 -85 -223 -17 -10 -299 -10
-316 1 -15 9 -11 21 229 721 55 162 104 307 109 322 5 15 11 32 15 38 6 10
835 15 835 5z m1380 -92 c0 -54 5 -163 10 -243 7 -123 23 -564 24 -710 l1 -45
-155 -3 c-85 -1 -164 0 -176 2 -18 5 -20 14 -23 88 -1 46 -6 86 -10 91 -4 4
-88 6 -187 5 l-179 -3 -52 -80 c-28 -44 -57 -86 -63 -92 -14 -16 -325 -18
-335 -3 -5 8 559 811 742 1058 l24 32 190 0 189 0 0 -97z m3600 91 c0 -18 -76
-230 -85 -236 -5 -4 -85 -8 -176 -8 l-166 0 -41 -122 c-126 -375 -240 -707
-246 -717 -9 -14 -322 -15 -331 -1 -6 10 4 43 173 537 55 160 97 294 94 297
-3 3 -73 6 -156 6 -83 0 -156 4 -163 8 -9 6 -2 38 27 122 22 63 40 116 40 117
0 2 232 3 515 3 283 0 515 -3 515 -6z"/>
<path d="M4219 4794 c-15 -21 -47 -70 -71 -109 -25 -38 -66 -103 -91 -143 -34
-52 -43 -74 -34 -78 7 -2 58 -3 113 -2 l99 3 8 55 c4 30 6 113 5 184 l-3 129
-26 -39z"/>
<path d="M7414 3655 c-129 -41 -216 -130 -230 -239 -20 -145 43 -218 266 -305
63 -25 98 -49 100 -71 5 -36 -2 -51 -32 -66 -65 -33 -198 -1 -295 72 -17 13
-35 24 -40 24 -5 0 -42 -34 -83 -75 l-74 -75 33 -34 c91 -94 290 -149 450
-125 191 28 301 138 301 299 0 42 -6 82 -14 99 -31 59 -117 115 -261 171 -72
28 -95 46 -95 75 0 40 23 58 82 63 67 5 138 -16 197 -59 23 -16 44 -29 48 -29
8 0 106 106 132 142 11 17 10 22 -10 44 -29 30 -110 71 -180 89 -66 18 -239
18 -295 0z"/>
<path d="M4032 3648 c-5 -7 -31 -92 -57 -188 -26 -96 -64 -238 -85 -315 -55
-201 -90 -341 -90 -360 0 -14 15 -15 117 -13 l117 3 37 135 c20 74 49 183 65
242 16 60 32 108 35 108 10 0 32 -38 66 -115 66 -148 162 -346 174 -361 9 -12
33 -14 113 -12 l100 3 12 35 c7 19 27 89 44 155 18 66 40 149 50 185 10 36 27
101 39 145 12 44 37 138 56 209 19 71 35 135 35 143 0 10 -26 13 -114 13 -66
0 -117 -4 -121 -10 -7 -11 -37 -117 -75 -260 -38 -146 -55 -193 -67 -198 -7
-2 -13 1 -13 6 0 10 -113 254 -177 382 l-38 75 -106 3 c-77 2 -109 -1 -117
-10z"/>
<path d="M5025 3650 c-6 -10 -36 -113 -75 -260 -27 -102 -57 -212 -70 -260
-53 -187 -90 -344 -83 -351 5 -5 163 -8 358 -7 l348 3 25 87 c13 48 22 94 19
103 -6 13 -38 15 -232 15 -254 0 -236 -7 -209 86 l15 54 209 0 c115 0 211 4
214 8 6 11 46 158 46 172 0 6 -76 11 -202 12 l-203 3 2 38 c2 21 8 50 15 65
l13 27 227 3 c204 2 228 4 237 20 16 30 52 173 46 183 -8 13 -692 12 -700 -1z"/>
<path d="M5806 3651 c-3 -5 -1 -78 4 -162 18 -270 30 -461 37 -587 3 -71 11
-126 17 -130 13 -8 161 -13 193 -7 21 5 51 50 249 372 38 62 72 113 75 113 8
0 15 -63 34 -297 7 -95 16 -177 19 -182 3 -5 51 -9 106 -9 l100 -1 24 32 c44
59 506 837 506 852 0 13 -19 15 -126 13 l-127 -3 -59 -105 c-33 -58 -76 -134
-96 -170 -19 -36 -53 -94 -74 -129 -21 -34 -38 -67 -38 -72 0 -11 -17 -12 -24
-1 -2 4 -9 93 -15 197 -6 105 -14 212 -17 238 l-7 48 -105 -3 -105 -3 -64
-104 c-34 -57 -63 -105 -63 -107 0 -4 -111 -189 -144 -241 -12 -18 -24 -33
-27 -33 -4 0 -10 71 -13 158 -4 86 -9 196 -12 245 l-6 87 -118 0 c-66 0 -121
-4 -124 -9z"/>
</g>
</svg>
